<svg version="1.2" baseProfile="tiny-ps" xmlns="http://www.w3.org/2000/svg" viewBox="0 0 16 16" width="16" height="16">
	<title>Member firm members editor</title>
	<style>
		tspan { white-space:pre }
		.shp0 { fill: #7367f0 }
	</style>
	<g id="Member firm members editor">
		<path id="add-user" class="shp0" d="M12.5 14.94C12.51 13.33 10.83 12.37 9.21 11.67C7.6 10.97 7.08 10.39 7.08 9.13C7.08 8.38 7.58 8.63 7.79 7.25C7.88 6.68 8.32 7.24 8.4 5.93C8.4 5.41 8.16 5.28 8.16 5.28C8.16 5.28 8.28 4.51 8.33 3.92C8.38 3.3 8.03 1.97 6.58 1.57C6.33 1.31 6.16 0.9 6.94 0.48C5.23 0.41 4.84 1.3 3.93 1.95C3.16 2.53 2.95 3.44 2.99 3.92C3.04 4.51 3.16 5.28 3.16 5.28C3.16 5.28 2.92 5.41 2.92 5.93C3 7.24 3.44 6.68 3.53 7.25C3.74 8.63 4.24 8.38 4.24 9.14C4.24 10.39 4.08 10.82 2.46 11.51C0.84 12.21 0.34 13.33 0.35 14.95C0.35 15.43 0.34 15.61 0.34 15.61L12.5 15.61C12.5 15.61 12.49 15.43 12.5 14.95L12.5 14.94ZM13.27 8L13.27 5.72L11.74 5.72L11.74 8L9.46 8L9.46 9.52L11.74 9.52L11.74 11.81L13.27 11.81L13.27 9.52L15.55 9.52L15.55 8L13.27 8Z" />
	</g>
</svg>
