<svg width="20" height="28" viewBox="0 0 20 28" fill="none" xmlns="http://www.w3.org/2000/svg">
<path d="M4.54322 13.0093H5.62346V11.9074H4.54322V13.0093ZM4.54322 16.3148H5.62346V15.213H4.54322V16.3148ZM4.54322 9.70373H5.62346V8.60188H4.54322V9.70373ZM4.54322 19.6204H5.62346V18.5185H4.54322V19.6204ZM4.54322 22.926H5.62346V21.8241H4.54322V22.926ZM6.70371 16.3148H15.3457V15.213H6.70371V16.3148ZM6.70371 9.70373H15.3457V8.60188H6.70371V9.70373ZM15.2787 0.888916H0.222229V27.3334H19.6667V5.29632L15.2787 0.888916ZM17.5062 25.0613H2.38272V3.09262H13.1852V6.32986H17.5062V25.0613ZM6.70371 19.6204H15.3457V18.5185H6.70371V19.6204ZM6.70371 13.0093H15.3457V11.9074H6.70371V13.0093ZM6.70371 22.926H15.3457V21.8241H6.70371V22.926Z" fill="white"/>
</svg>
