<svg version="1.2" baseProfile="tiny-ps" xmlns="http://www.w3.org/2000/svg" viewBox="0 0 26 20" width="30" height="22">
	<title>Dashboard</title>
	<style>
		tspan { white-space:pre }
		.shp0 { fill: #f0f0f0 }
		.shp1 { fill: #707070 }
	</style>
	<g id="Dashboard">
		<g id="Group 209">
			<path id="Rectangle 50" class="shp0" d="M0 10L0 10C0 4.47 4.47 0 10 0L16 0C21.53 0 26 4.47 26 10L26 10C26 15.53 21.53 20 16 20L10 20C4.47 20 0 15.53 0 10Z" />
			<path id="chevron-small-down" class="shp1" d="M17.29 7.41C17.6 7.1 18.1 7.1 18.41 7.41C18.72 7.71 18.72 8.21 18.41 8.52L13.92 12.92C13.61 13.22 13.11 13.22 12.8 12.92L8.31 8.52C8 8.21 8 7.71 8.31 7.41C8.62 7.1 9.13 7.1 9.43 7.41L13.36 11.01L17.29 7.41L17.29 7.41Z" />
		</g>
	</g>
</svg>
