<svg version="1.2" baseProfile="tiny-ps" xmlns="http://www.w3.org/2000/svg" viewBox="0 0 19 24" width="24" height="32">
	<title>Dashboard</title>
	<style>
		tspan { white-space:pre }
		.shp0 { fill: #f0f0f0 }
		.shp1 { fill: #707070 }
	</style>
	<g id="Dashboard">
		<g id="Group 207">
			<path id="Rectangle 50" class="shp0" d="M10 24L10 24C5.02 24 1 19.98 1 15L1 9C1 4.02 5.02 0 10 0L10 0C14.98 0 19 4.02 19 9L19 15C19 19.98 14.98 24 10 24Z" />
			<path id="chevron-small-down" class="shp1" d="M7.58 7.71C7.28 7.4 7.28 6.9 7.58 6.59C7.87 6.28 8.34 6.28 8.63 6.59L12.82 11.08C13.11 11.39 13.11 11.89 12.82 12.2L8.63 16.69C8.34 17 7.87 17 7.58 16.69C7.28 16.38 7.28 15.87 7.58 15.57L11.01 11.64L7.58 7.71L7.58 7.71Z" />
		</g>
	</g>
</svg>
