<svg width="24" height="21" fill="none" xmlns="http://www.w3.org/2000/svg">
  <path fill-rule="evenodd" clip-rule="evenodd" d="M13.456.586c-5.375 0-9.747 4.307-9.877 9.669v.247H.71l4.345 4.709 4.225-4.709H6.05v-.247c.128-3.994 3.394-7.189 7.405-7.189 4.095 0 7.414 3.33 7.414 7.436 0 4.107-3.32 7.437-7.414 7.437a7.372 7.372 0 0 1-4.385-1.443l-1.7 1.818a9.831 9.831 0 0 0 6.085 2.102c5.46 0 9.883-4.438 9.883-9.914 0-5.475-4.424-9.916-9.883-9.916Zm-1.21 3.87v6.046a1.22 1.22 0 0 0 .355.855l3.87 3.87a5.62 5.62 0 0 0 .951-.76l-2.757-2.755V4.457h-2.418Z" fill="#7367F0"/>
</svg>
