<svg version="1.2" baseProfile="tiny-ps" xmlns="http://www.w3.org/2000/svg" viewBox="0 0 17 17" width="17" height="17">
	<title>help-with-circle</title>
	<style>
		tspan { white-space:pre }
		.shp0 { fill: #b9b9b9 } 
	</style>
	<path id="help-with-circle" fill-rule="evenodd" class="shp0" d="M8.64 0C13.26 0 17 3.74 17 8.36C17 12.98 13.26 16.72 8.64 16.72C4.02 16.72 0.28 12.98 0.28 8.36C0.28 3.74 4.02 0 8.64 0ZM9.69 12.11C9.71 11.42 9.23 10.92 8.53 10.9L8.49 10.9C7.83 10.9 7.34 11.38 7.32 12.04C7.3 12.71 7.78 13.22 8.46 13.24L8.51 13.24C9.18 13.24 9.67 12.77 9.69 12.11ZM11.37 7.55C11.68 7.13 11.84 6.66 11.84 6.17C11.84 5.29 11.52 4.61 10.89 4.16C10.27 3.71 9.49 3.48 8.56 3.48C7.85 3.48 7.24 3.64 6.74 3.96C5.97 4.45 5.54 5.3 5.49 6.48L5.49 6.56L7.42 6.56L7.42 6.48C7.42 6.16 7.51 5.85 7.7 5.56C7.88 5.26 8.19 5.12 8.63 5.12C9.08 5.12 9.39 5.24 9.56 5.47C9.73 5.71 9.81 5.98 9.81 6.27C9.81 6.47 9.73 6.69 9.53 6.96C9.45 7.08 9.34 7.19 9.2 7.3C9.16 7.32 8.23 7.92 7.81 8.42C7.54 8.73 7.52 9.12 7.5 9.76L7.49 9.92L9.36 9.92L9.36 9.84C9.37 9.53 9.39 9.49 9.44 9.34C9.5 9.15 9.66 8.95 9.93 8.74L10.42 8.4C10.86 8.06 11.21 7.78 11.37 7.55L11.37 7.55Z" />
</svg>