<svg width="21" height="16" viewBox="0 0 21 16" fill="none" xmlns="http://www.w3.org/2000/svg">
<path fill-rule="evenodd" clip-rule="evenodd" d="M17.5551 4.57259C17.4915 2.03661 15.4183 0 12.8684 0C11.3747 0 10.0456 0.69926 9.18678 1.78755C8.70506 1.16522 7.95158 0.76357 7.10415 0.76357C5.64952 0.76357 4.47107 1.94329 4.47107 3.39854C4.47107 3.52528 4.48053 3.65012 4.49818 3.77181C4.27687 3.73209 4.04988 3.71002 3.81721 3.71002C1.70873 3.71002 0 5.42001 0 7.52976C0 9.63951 1.70873 11.3495 3.81721 11.3495H5.62556L10.0884 15.97L14.5513 11.3495H16.7481C18.6422 11.3457 20.1769 9.80849 20.1769 7.91249C20.1769 6.29519 19.0602 4.93892 17.5564 4.57322L17.5551 4.57259ZM10.0872 13.8716L6.304 10.0884H8.82611V6.30528H11.3482V10.0884H13.8703L10.0872 13.8716Z" fill="#95989A"/>
</svg>
