<svg width="17" height="16" viewBox="0 0 17 16" fill="none" xmlns="http://www.w3.org/2000/svg">
<path fill-rule="evenodd" clip-rule="evenodd" d="M15.0651 1.12378C13.7567 -0.185806 12.7738 0.0104344 12.7738 0.0104344L1.13432 11.6487L0.217773 15.97L4.54016 15.0535L16.1796 3.41686C16.1785 3.41686 16.3758 2.43396 15.0651 1.1238V1.12378ZM4.28324 14.5345L2.80973 14.8521C2.66794 14.5861 2.49665 14.3201 2.18358 14.0065C1.86937 13.6922 1.60393 13.5227 1.33793 13.3792L1.65554 11.9062L2.08205 11.4808C2.08205 11.4808 2.88346 11.4973 3.78923 12.4031C4.69386 13.3071 4.71145 14.1102 4.71145 14.1102L4.2838 14.5351L4.28324 14.5345Z" fill="#95989A"/>
</svg>
