<svg width="16" height="18" viewBox="0 0 16 18" fill="none" xmlns="http://www.w3.org/2000/svg">
<path d="M12.5714 10.125C12.5714 11.3185 12.0898 12.4631 11.2325 13.307C10.3752 14.1509 9.21242 14.625 8 14.625C6.78758 14.625 5.62482 14.1509 4.76751 13.307C3.9102 12.4631 3.42857 11.3185 3.42857 10.125C3.42857 7.82719 5.66686 6.41531 8 6.21506V9L13.7143 5.0625V4.5L8 0V2.83612C3.80171 3.07912 0 5.9625 0 10.125C0 12.2136 0.842855 14.2166 2.34315 15.6935C3.84344 17.1703 5.87827 18 8 18C10.1217 18 12.1566 17.1703 13.6569 15.6935C15.1571 14.2166 16 12.2136 16 10.125H12.5714Z" fill="#7367F0"/>
</svg>
