<svg version="1.2" baseProfile="tiny-ps" xmlns="http://www.w3.org/2000/svg" viewBox="0 0 16 17" width="16" height="17">
	<title>Member firm members editor</title>
	<style>
		tspan { white-space:pre }
		.shp0 { fill: #ef6363 } 
	</style>
	<g id="Member firm members editor">
		<path id="remove-user" class="shp0" d="M13.01 15.42C13.01 13.66 11.29 12.76 9.62 12.04C7.95 11.32 7.42 10.72 7.42 9.42C7.42 8.64 7.93 8.9 8.15 7.47C8.24 6.88 8.69 7.46 8.78 6.11C8.78 5.58 8.53 5.44 8.53 5.44C8.53 5.44 8.66 4.65 8.71 4.03C8.76 3.39 8.39 2.02 6.9 1.6C6.64 1.33 6.46 0.91 7.26 0.48C5.51 0.4 5.1 1.32 4.16 2C3.36 2.59 3.15 3.53 3.19 4.03C3.24 4.65 3.36 5.44 3.36 5.44C3.36 5.44 3.11 5.58 3.11 6.11C3.2 7.46 3.65 6.88 3.75 7.47C3.97 8.9 4.48 8.64 4.48 9.42C4.48 10.72 4.31 11.16 2.64 11.87C0.97 12.59 0.45 13.75 0.46 15.42C0.46 15.92 0.45 16.1 0.45 16.1L13.02 16.1C13.02 16.1 13.01 15.92 13.01 15.42L13.01 15.42ZM13.02 8.28L11.21 6.4L10.38 7.23L12.26 9.04L10.38 10.84L11.21 11.67L13.02 9.79L14.82 11.67L15.65 10.84L13.77 9.04L15.65 7.23L14.82 6.4L13.02 8.28Z" />
	</g>
</svg>