<svg width="22" height="22" viewBox="0 0 22 22" fill="none" xmlns="http://www.w3.org/2000/svg">
<path fill-rule="evenodd" clip-rule="evenodd" d="M21.5945 19.9275C21.8513 20.1844 21.8513 20.601 21.5945 20.8585L20.6635 21.7895C20.406 22.0464 19.9893 22.0464 19.7325 21.7895L13.2149 15.2719C13.1441 15.2012 13.0969 15.1176 13.0652 15.0286C11.7284 16.0054 10.0869 16.5885 8.30379 16.5885C3.83627 16.5885 0.214111 12.9664 0.214111 8.49886C0.214111 4.03134 3.83626 0.40918 8.30379 0.40918C12.7713 0.40918 16.3935 4.03133 16.3935 8.49886C16.3935 10.282 15.8103 11.9235 14.8335 13.2603C14.9225 13.292 15.0061 13.3385 15.0769 13.41L21.5945 19.9275ZM8.3038 3.10573C5.32545 3.10573 2.91068 5.5205 2.91068 8.49885C2.91068 11.4772 5.32545 13.892 8.3038 13.892C11.2822 13.892 13.6969 11.4772 13.6969 8.49885C13.6969 5.5205 11.2822 3.10573 8.3038 3.10573Z" fill="#707070"/>
</svg>
