<svg version="1.2" baseProfile="tiny-ps" xmlns="http://www.w3.org/2000/svg" viewBox="0 0 15 15" width="15" height="15">
	<title>Member firm members editor</title>
	<style>
		tspan { white-space:pre }
		.shp0 { fill: #7a7a7a } 
	</style>
	<g id="Member firm members editor">
		<path id="settings" fill-rule="evenodd" class="shp0" d="M13.56 5.85C13.97 5.93 14.26 6.29 14.26 6.7L14.26 7.88C14.26 8.3 13.97 8.66 13.56 8.74L12.23 9C12.16 9.2 12.08 9.38 11.99 9.57L12.75 10.7C12.98 11.04 12.93 11.5 12.64 11.8L11.8 12.63C11.63 12.8 11.41 12.89 11.19 12.89C11.02 12.89 10.85 12.84 10.71 12.74L9.57 11.99C9.39 12.07 9.2 12.15 9.01 12.22L8.74 13.55C8.66 13.96 8.31 14.25 7.89 14.25L6.71 14.25C6.29 14.25 5.94 13.96 5.85 13.55L5.59 12.22C5.39 12.15 5.21 12.07 5.03 11.99L3.89 12.74C3.75 12.84 3.58 12.89 3.41 12.89C3.19 12.89 2.96 12.8 2.79 12.63L1.96 11.8C1.66 11.5 1.62 11.04 1.85 10.7L2.6 9.57C2.52 9.38 2.44 9.2 2.37 9L1.04 8.74C0.63 8.66 0.34 8.3 0.34 7.88L0.34 6.7C0.34 6.29 0.63 5.93 1.04 5.85L2.37 5.58C2.44 5.39 2.52 5.2 2.6 5.02L1.85 3.89C1.62 3.54 1.66 3.08 1.96 2.79L2.79 1.95C2.96 1.78 3.19 1.7 3.41 1.7C3.58 1.7 3.75 1.74 3.89 1.84L5.03 2.6C5.21 2.51 5.39 2.43 5.59 2.36L5.85 1.03C5.93 0.62 6.29 0.33 6.71 0.33L7.89 0.33C8.3 0.33 8.66 0.62 8.74 1.03L9.01 2.36C9.2 2.43 9.39 2.51 9.57 2.6L10.71 1.84C10.85 1.74 11.02 1.7 11.19 1.7C11.41 1.7 11.63 1.78 11.8 1.95L12.64 2.79C12.93 3.08 12.98 3.54 12.75 3.89L11.99 5.02C12.08 5.2 12.16 5.39 12.23 5.58L13.56 5.85ZM13.39 7.88L13.39 6.7L12.06 6.43C11.75 6.37 11.51 6.16 11.41 5.87C11.35 5.7 11.28 5.55 11.21 5.4C11.08 5.12 11.1 4.79 11.27 4.54L12.03 3.4L11.19 2.57L10.05 3.32C9.91 3.42 9.74 3.47 9.57 3.47C9.44 3.47 9.31 3.44 9.19 3.38C9.04 3.31 8.88 3.24 8.73 3.19C8.43 3.08 8.22 2.84 8.16 2.53L7.89 1.2L6.71 1.2L6.44 2.53C6.38 2.84 6.16 3.08 5.87 3.19C5.71 3.24 5.56 3.31 5.4 3.38C5.28 3.44 5.15 3.47 5.03 3.47C4.86 3.47 4.69 3.42 4.54 3.32L3.41 2.57L2.57 3.4L3.33 4.54C3.5 4.79 3.52 5.12 3.39 5.4C3.31 5.55 3.25 5.7 3.19 5.87C3.09 6.16 2.84 6.37 2.54 6.43L1.21 6.7L1.21 7.88L2.54 8.15C2.84 8.21 3.09 8.43 3.19 8.72C3.25 8.88 3.31 9.04 3.39 9.19C3.52 9.46 3.5 9.79 3.33 10.05L2.57 11.18L3.41 12.02L4.54 11.26C4.69 11.17 4.86 11.12 5.03 11.12C5.16 11.12 5.28 11.15 5.41 11.2C5.56 11.28 5.71 11.34 5.87 11.4C6.16 11.5 6.38 11.75 6.44 12.05L6.71 13.38L7.89 13.38L8.16 12.05C8.22 11.75 8.43 11.5 8.73 11.4C8.89 11.34 9.04 11.28 9.19 11.2C9.31 11.15 9.44 11.12 9.57 11.12C9.74 11.12 9.91 11.17 10.06 11.26L11.19 12.02L12.03 11.18L11.27 10.05C11.1 9.79 11.08 9.46 11.21 9.19C11.28 9.03 11.35 8.88 11.41 8.72C11.51 8.43 11.75 8.21 12.06 8.15L13.39 7.88ZM7.3 4.25C8.98 4.25 10.34 5.61 10.34 7.29C10.34 8.97 8.98 10.34 7.3 10.34C5.62 10.34 4.25 8.97 4.25 7.29C4.25 5.61 5.62 4.25 7.3 4.25ZM9.96 7.29C9.96 5.82 8.77 4.63 7.3 4.63C5.83 4.63 4.63 5.82 4.63 7.29C4.63 8.76 5.83 9.96 7.3 9.96C8.77 9.96 9.96 8.76 9.96 7.29ZM7.3 5.55C8.26 5.55 9.04 6.33 9.04 7.29C9.04 8.25 8.26 9.03 7.3 9.03C6.34 9.03 5.56 8.25 5.56 7.29C5.56 6.33 6.34 5.55 7.3 5.55ZM8.6 7.29C8.6 6.57 8.02 5.99 7.3 5.99C6.58 5.99 5.99 6.57 5.99 7.29C5.99 8.01 6.58 8.6 7.3 8.6C8.02 8.6 8.6 8.01 8.6 7.29Z" />
	</g>
</svg>