<svg xmlns="http://www.w3.org/2000/svg" width="135" height="30" viewBox="0 0 135 30" fill="none">
  <path fill-rule="evenodd" clip-rule="evenodd" d="M35 0H29V27H35V0ZM11.1197 26L14 4H8.51039C8.28961 6.40055 8.08889 8.88214 7.91828 11.4245C7.59713 16.0028 7.36631 18.8794 7.22581 20.0645L5.48961 4H0L3.09104 26H11.1197ZM21.7744 16.0683C20.7947 16.8583 20.2245 17.5073 20.0636 18.0453C19.9017 18.5769 19.8207 19.3538 19.8207 20.3556C19.8207 21.5004 19.8915 22.2467 20.0231 22.584C20.1649 22.9213 20.4382 23.0849 20.8431 23.0849C21.2278 23.0849 21.4808 22.952 21.6023 22.6964C21.7238 22.4307 21.7744 21.7458 21.7744 20.6316V16.0683ZM14 13.0058H19.8207V10.6751C19.8207 9.43822 19.8713 8.67156 19.9725 8.37511C20.0738 8.07867 20.3369 7.93556 20.752 7.93556C21.1164 7.93556 21.3796 8.11956 21.5416 8.46711C21.7035 8.82489 21.7845 9.58133 21.7845 10.7364C21.7845 11.6667 21.7137 12.28 21.5719 12.5764C21.4302 12.8831 20.3369 13.4658 18.3022 14.3347C16.3991 15.132 15.2148 15.8373 14.7289 16.4404C14.2531 17.0436 14.0101 18.168 14.0101 19.8342V21.6538C14.0101 23.8924 14.4657 25.344 15.3666 26.0084C16.2675 26.6627 17.2697 27 18.3529 27C19.1829 27 19.9017 26.8058 20.4989 26.4071C21.0962 26.0084 21.5922 25.4156 21.9667 24.6182V26.6013H28V15.4591C28 11.7893 27.8886 9.36667 27.6761 8.19111C27.4534 7.01556 26.8156 6.024 25.7527 5.21644C24.6898 4.40889 23.1005 4 21.0051 4C19.2538 4 17.8265 4.35778 16.7332 5.07333C15.6399 5.77867 14.9111 6.60667 14.5466 7.53689C14.1822 8.46711 14 9.796 14 11.5133V13.0058ZM43 27H37V4.86835H43V27ZM43 3.51377H37V0H43V3.51377ZM51.9221 10.2881C51.9221 9.48513 51.8626 8.95316 51.7337 8.68216C51.6048 8.41115 51.3569 8.27063 50.9901 8.27063C50.6331 8.27063 50.3853 8.39108 50.2564 8.64201C50.1275 8.89294 50.068 9.43495 50.068 10.2981V20.9777C50.068 21.861 50.1275 22.4431 50.2465 22.7242C50.3654 23.0052 50.5935 23.1457 50.9405 23.1457C51.3272 23.1457 51.5949 22.9851 51.7238 22.674C51.8527 22.3628 51.9221 21.6 51.9221 20.3855V10.2881ZM58 0V26.6086H51.9221V25.0227C51.3371 25.6851 50.7323 26.177 50.0878 26.5082C49.4433 26.8394 48.7691 27 48.0751 27C47.1331 27 46.3201 26.729 45.6261 26.187C44.932 25.645 44.4858 25.0227 44.2975 24.31C44.0991 23.5974 44 22.4331 44 20.8271V10.6193C44 8.94312 44.0991 7.75874 44.2975 7.05613C44.4958 6.35353 44.9419 5.74126 45.6459 5.20929C46.3499 4.67732 47.1827 4.41636 48.1544 4.41636C48.9079 4.41636 49.5921 4.56692 50.2266 4.85799C50.8513 5.14907 51.4263 5.60074 51.932 6.19294V0H58ZM67.7745 8.40206C67.8638 8.69072 67.9135 9.53608 67.9135 10.9175V20.5052C67.9135 21.701 67.8738 22.4536 67.7745 22.7629C67.6752 23.0722 67.4269 23.2268 67.0397 23.2268C66.6326 23.2268 66.3745 23.0619 66.2553 22.7216C66.1362 22.3814 66.0766 21.5361 66.0766 20.1856V10.9072C66.0766 9.61856 66.1262 8.80412 66.2454 8.46392C66.3546 8.12371 66.6227 7.95876 67.0199 7.95876C67.4369 7.95876 67.6851 8.1134 67.7745 8.40206ZM66.0766 6.38144L66.1759 4.40206H60V30H66.0865V24.866C66.6128 25.6495 67.1986 26.2371 67.844 26.6289C68.4894 27.0206 69.1844 27.2165 69.939 27.2165C70.8823 27.2165 71.6865 26.9691 72.3518 26.4536C73.017 25.9381 73.4539 25.2474 73.6723 24.3918C73.8908 23.5258 74 22.0825 74 20.0412V10.6082C74 8.82474 73.9106 7.56701 73.7418 6.82474C73.5631 6.08247 73.1362 5.42268 72.4511 4.85567C71.766 4.28866 70.9518 4 70.0085 4C69.234 4 68.5291 4.19588 67.8738 4.58763C67.2184 4.97938 66.6227 5.57732 66.0766 6.38144ZM81.0535 18.0453C81.2144 17.5072 81.7846 16.8583 82.7643 16.0683V20.6316C82.7643 21.7458 82.7137 22.4307 82.5922 22.6964C82.4707 22.952 82.2176 23.0849 81.833 23.0849C81.4281 23.0849 81.1547 22.9213 81.013 22.584C80.8814 22.2467 80.8106 21.5004 80.8106 20.3556C80.8106 19.3538 80.8915 18.5769 81.0535 18.0453ZM80.8207 13.0058H75V11.5133C75 9.796 75.1822 8.46711 75.5466 7.53689C75.9111 6.60667 76.6399 5.77867 77.7332 5.07333C78.8265 4.35778 80.2538 4 82.0051 4C84.1005 4 85.6898 4.40889 86.7527 5.21644C87.8156 6.024 88.4534 7.01556 88.6761 8.19111C88.8886 9.36667 89 11.7893 89 15.4591V26.6013H82.9667V24.6182C82.5922 25.4156 82.0962 26.0084 81.4989 26.4071C80.9017 26.8058 80.1829 27 79.3529 27C78.2697 27 77.2675 26.6627 76.3666 26.0084C75.4657 25.344 75.0101 23.8924 75.0101 21.6538V19.8342C75.0101 18.168 75.2531 17.0436 75.7288 16.4404C76.2147 15.8373 77.3991 15.132 79.3022 14.3347C81.337 13.4658 82.4302 12.8831 82.5719 12.5764C82.7137 12.28 82.7845 11.6667 82.7845 10.7364C82.7845 9.58133 82.7035 8.82489 82.5416 8.46711C82.3796 8.11956 82.1164 7.93556 81.752 7.93556C81.337 7.93556 81.0737 8.07867 80.9725 8.37511C80.8713 8.67156 80.8207 9.43822 80.8207 10.6751V13.0058ZM96.1674 5.47279V2H90.2665V5.47279H89V8.96588H90.2665V20.156C90.2665 22.3493 90.3241 23.7405 90.4296 24.3396C90.5352 24.9387 90.8134 25.4667 91.2452 25.9236C91.6866 26.3907 92.1855 26.6751 92.7612 26.8071C93.3369 26.9391 94.2868 27 95.6301 27H98V23.446C97.0405 23.446 96.4936 23.3546 96.3593 23.1921C96.2345 23.0297 96.1674 22.2173 96.1674 20.7652V8.96588H97.7505V5.47279H96.1674ZM105.056 0V6.07016C105.58 5.54055 106.133 5.13316 106.746 4.86835C107.349 4.60355 108.001 4.47114 108.682 4.47114C109.74 4.47114 110.639 4.7665 111.39 5.36741C112.131 5.96831 112.585 6.66088 112.753 7.44512C112.921 8.22935 113 9.66541 113 11.7431V27H106.944V11.4172C106.944 10.1237 106.884 9.29876 106.776 8.9321C106.657 8.56545 106.4 8.38212 106.005 8.38212C105.639 8.38212 105.382 8.57563 105.254 8.95247C105.126 9.32931 105.056 10.083 105.056 11.2033V26.9898H99V0H105.056ZM115.034 7.49849C116.463 9.87062 122.058 14.695 122.058 14.695C122.058 14.695 120.2 18.3082 119.18 21.9815C118.041 26.1452 118.621 28.3072 120.3 28.8377C121.668 29.268 124.496 28.9778 126.884 26.2954C130.834 21.8427 132.175 19.1095 134.163 15.0584L134.218 14.9452C135.147 13.0735 135.397 11.2318 134.138 9.83058C132.689 8.21914 129.302 5.38659 124.666 2.86432C119.75 0.181915 116.083 0.812481 114.744 2.15369C113.405 3.49489 114.105 5.94709 115.034 7.49849Z" fill="url(#paint0_linear_4640_2776)"/>
  <defs>
    <linearGradient id="paint0_linear_4640_2776" x1="-3.77186e-07" y1="15" x2="135" y2="15" gradientUnits="userSpaceOnUse">
      <stop stop-color="#0AC5FF"/>
      <stop offset="1" stop-color="#B704FF"/>
    </linearGradient>
  </defs>
</svg>
