<svg width="248" height="232" viewBox="0 0 248 232" fill="none" xmlns="http://www.w3.org/2000/svg">
<path d="M197.75 60.15V60.4073L197.959 60.5569L247.25 95.7617V231.25H0.75V95.7617L50.0406 60.5569L50.25 60.4073V60.15V11.0631C50.253 8.4614 51.2878 5.96714 53.1275 4.12748C54.9671 2.28789 57.4612 1.25306 60.0628 1.25H187.937C190.539 1.25306 193.033 2.28789 194.873 4.12748C196.712 5.96714 197.747 8.4614 197.75 11.0631V60.15ZM226.202 100.616L226.814 100.215L226.219 99.7902L198.541 80.0175L197.75 79.4527V80.4244V118.292V119.216L198.524 118.71L226.202 100.616ZM66.25 16.75H65.75V17.25V126.782V127.063L65.9905 127.209L101.822 148.964L102.055 149.105L102.299 148.987L128.249 136.459L152.044 148.797L152.303 148.932L152.547 148.772L182.024 129.499L182.25 129.351V129.08V17.25V16.75H181.75H66.25ZM128.223 153.906L128.001 153.79L127.776 153.899L16.5326 207.603L16.25 207.74V208.053V215.25V215.75H16.75H231.25H231.75V215.25V207.89V207.587L231.48 207.447L128.223 153.906ZM17.0095 115.603L16.25 115.142V116.031V189.731V190.528L16.9674 190.181L84.5885 157.538L85.4172 157.138L84.6306 156.66L17.0095 115.603ZM168.816 156.656L168.099 157.125L168.859 157.518L231.02 189.748L231.75 190.127V189.304V116.429V115.505L230.976 116.01L168.816 156.656ZM50.25 80.4244V79.4528L49.4594 80.0175L21.959 99.6602L21.342 100.101L21.9901 100.494L49.4905 117.193L50.25 117.654V116.766V80.4244Z" fill="#EFEFEF" stroke="#F4F4F4"/>
</svg>
