<svg width="21" height="20" viewBox="0 0 21 20" fill="none" xmlns="http://www.w3.org/2000/svg">
<path d="M4.43293 17.7399C5.94952 18.9851 7.80046 19.754 9.75293 19.95L9.75293 17.9299C8.29293 17.7499 6.96293 17.1699 5.85293 16.3099L4.43293 17.7399ZM2.82293 10.9999L0.80293 10.9999C1.00293 13.0099 1.80293 14.8399 3.01293 16.3199L4.44293 14.8999C3.56082 13.77 3.00102 12.4223 2.82293 10.9999ZM4.44293 5.09995L3.01293 3.66995C1.76939 5.18753 1.0007 7.03795 0.80293 8.98995L2.82293 8.98995C3.00296 7.57111 3.56265 6.22717 4.44293 5.09995ZM9.75293 2.06995L9.75293 0.0499487C7.74293 0.249949 5.91293 1.04995 4.43293 2.25995L5.86293 3.68995C6.96293 2.82995 8.29293 2.24995 9.75293 2.06995ZM7.16293 11.41L9.75293 8.82995L9.75293 15L11.7529 15L11.7529 8.82995L14.3429 11.42L15.7529 9.99995L10.7529 4.99995L5.75293 9.99995L7.16293 11.41ZM11.7529 2.06995L11.7529 0.0499489C16.8029 0.549949 20.7529 4.80995 20.7529 9.99995C20.7529 15.19 16.8029 19.45 11.7529 19.95L11.7529 17.93C15.7029 17.44 18.7529 14.08 18.7529 9.99995C18.7529 5.91995 15.7029 2.55995 11.7529 2.06995Z" fill="#35A046"/>
</svg>
