<svg width="34" height="43" viewBox="0 0 34 43" fill="none" xmlns="http://www.w3.org/2000/svg">
<path d="M29.7594 12.6347H30.3389L29.9292 12.225L21.0419 3.33776L20.6322 2.92805V3.50746V12.3947V12.6347H20.8722H29.7594ZM29.8444 39.1736H30.0844V38.9336V15.6058V15.3658H29.8444H19.6444C19.1821 15.3658 18.7387 15.1821 18.4117 14.8552C18.0848 14.5282 17.9011 14.0848 17.9011 13.6225V3.42246V3.18246H17.6611H3.4H3.16V3.42246V38.9336V39.1736H3.4H29.8444ZM22.4686 0.636055L32.6309 10.7983C32.8692 11.0366 33.0044 11.3628 33.0044 11.7005V40.8225C33.0044 41.5257 32.4366 42.0936 31.7333 42.0936H1.51111C0.807826 42.0936 0.24 41.5257 0.24 40.8225V1.53357C0.24 0.830287 0.807826 0.262461 1.51111 0.262461H21.5711C21.908 0.262461 22.2297 0.39716 22.4686 0.636055ZM7.55556 26.4236H16.2444C16.3197 26.4236 16.3822 26.4861 16.3822 26.5614V28.828C16.3822 28.9032 16.3197 28.9658 16.2444 28.9658H7.55556C7.48033 28.9658 7.41778 28.9032 7.41778 28.828V26.5614C7.41778 26.4861 7.48033 26.4236 7.55556 26.4236ZM7.41778 22.4058V20.1391C7.41778 20.0639 7.48033 20.0014 7.55556 20.0014H25.6889C25.7641 20.0014 25.8267 20.0639 25.8267 20.1391V22.4058C25.8267 22.481 25.7641 22.5436 25.6889 22.5436H7.55556C7.48033 22.5436 7.41778 22.481 7.41778 22.4058Z" fill="#BCBCBC" stroke="white" stroke-width="0.48"/>
</svg>
