<svg width="233" height="264" viewBox="0 0 233 264" fill="none" xmlns="http://www.w3.org/2000/svg">
<path fill-rule="evenodd" clip-rule="evenodd" d="M142.643 0.453712C142.098 0.700561 141.431 1.11066 141.159 1.3652C140.888 1.61953 140.467 2.35964 140.224 3.00976C139.796 4.15402 139.781 4.70338 139.781 20.1906C139.781 29.9466 139.865 36.4817 139.997 36.9389C140.115 37.351 140.474 38.0671 140.795 38.53C141.159 39.0542 141.825 39.59 142.561 39.9499C143.556 40.4366 143.965 40.5138 145.149 40.4385C146.209 40.371 146.776 40.2022 147.458 39.7508C147.956 39.4219 148.628 38.7515 148.953 38.2609C149.456 37.5021 149.572 37.0181 149.73 35.0176C149.833 33.7243 149.924 26.4291 149.932 18.8059C149.943 9.14379 149.872 4.61229 149.696 3.84535C149.558 3.24033 149.191 2.37724 148.881 1.92754C148.55 1.44793 147.854 0.879428 147.198 0.552497C146.397 0.154063 145.73 -0.00346252 144.856 5.76029e-05C144.105 0.0029177 143.252 0.178043 142.643 0.453712ZM54.4727 1.06885C53.9834 1.29084 53.3232 1.78124 53.0058 2.15833C52.6881 2.53564 52.2961 3.21789 52.1343 3.67484C51.899 4.33927 51.8402 7.78326 51.8402 20.9016V37.2981L52.3998 38.3922C52.7727 39.1216 53.3071 39.7209 54.0016 40.189C54.5973 40.5903 55.4875 40.958 56.0781 41.0464C56.6965 41.139 57.5127 41.0957 58.1084 40.9382C58.6563 40.7934 59.4511 40.3972 59.8749 40.0575C60.2986 39.7178 60.8223 39.1379 61.0387 38.7689C61.2551 38.3999 61.5269 37.5193 61.643 36.8121C61.759 36.105 61.8963 30.0812 61.9485 23.426C62.0004 16.7708 61.9718 9.69205 61.8849 7.69548C61.751 4.62351 61.6555 3.93005 61.2626 3.18533C61.0072 2.70131 60.5643 2.08727 60.2786 1.82084C59.9926 1.55419 59.3919 1.18304 58.9433 0.995812C58.4945 0.808365 57.5065 0.65744 56.7451 0.66008C55.8826 0.66316 55.0274 0.816946 54.4727 1.06885ZM98.2873 1.06093C97.803 1.29128 97.136 1.76826 96.8049 2.12093C96.4739 2.4736 96.0541 3.25331 95.8718 3.85371C95.5898 4.78236 95.5401 7.33027 95.5381 20.9118C95.5359 34.7032 95.5817 37.0132 95.874 37.8706C96.0602 38.4167 96.5802 39.2221 97.0297 39.6606C97.4792 40.0991 98.2804 40.6106 98.8103 40.7971C99.3399 40.9839 100.187 41.1366 100.693 41.1366C101.243 41.1366 102.076 40.906 102.763 40.5639C103.395 40.2489 104.146 39.6795 104.43 39.2989C104.714 38.9181 105.083 38.2105 105.249 37.7265C105.495 37.0113 105.551 33.798 105.551 20.5606V4.2748L104.989 3.18203C104.649 2.52024 104.056 1.82854 103.486 1.42813C102.668 0.853906 102.322 0.758642 100.856 0.704521C99.5559 0.656559 98.9655 0.738401 98.2873 1.06093ZM36.6514 20.4627C35.3196 20.5503 33.5467 20.7844 32.7117 20.9833C31.8768 21.1819 30.6062 21.6574 29.8884 22.04C29.1705 22.4223 28.2319 23.138 27.8026 23.6306C27.3732 24.123 26.7927 25.034 26.5127 25.6551C26.2327 26.276 25.834 27.563 25.6264 28.5152C25.3273 29.889 25.2322 31.6996 25.1657 37.2865C25.1195 41.1586 25.0847 44.6237 25.0882 44.9867L25.0948 45.6468L12.5473 45.5869L0 45.5271V154.763V264L97.4618 263.947L194.924 263.894L194.924 253.554C194.924 243.285 194.928 243.208 195.408 242.435C195.675 242.007 196.286 241.436 196.766 241.166C197.246 240.896 198.366 240.442 199.253 240.156C200.141 239.871 201.659 239.32 202.628 238.931C203.597 238.543 205.455 237.68 206.758 237.014C208.061 236.348 209.892 235.304 210.826 234.695C211.76 234.085 213.319 232.984 214.29 232.247C215.261 231.51 216.984 230.013 218.118 228.92C219.253 227.827 220.957 225.97 221.905 224.794C222.853 223.617 224.114 221.934 224.707 221.054C225.3 220.173 226.232 218.661 226.777 217.693C227.323 216.725 228.191 214.992 228.707 213.842C229.224 212.693 229.988 210.713 230.407 209.442C230.825 208.172 231.399 206.093 231.681 204.822C231.964 203.552 232.298 201.671 232.425 200.642C232.551 199.614 232.706 197.485 232.77 195.912C232.833 194.339 232.794 192.111 232.682 190.962C232.57 189.812 232.327 187.909 232.143 186.733C231.959 185.557 231.599 183.779 231.344 182.781C231.09 181.784 230.588 180.085 230.229 179.006C229.87 177.926 229.107 175.992 228.533 174.707C227.959 173.422 226.783 171.183 225.92 169.731C225.056 168.279 223.763 166.299 223.046 165.331C222.33 164.363 220.849 162.581 219.755 161.371C218.661 160.161 216.952 158.478 215.957 157.631C214.962 156.784 213.289 155.475 212.24 154.724C211.191 153.972 209.292 152.766 208.021 152.043C206.75 151.321 204.868 150.366 203.839 149.92C202.81 149.475 200.863 148.736 199.512 148.278C198.162 147.819 196.76 147.225 196.398 146.957C196.035 146.689 195.557 146.069 195.336 145.579C194.95 144.723 194.933 142.667 194.929 95.6067C194.924 56.0369 194.869 46.4309 194.641 46.0318L194.358 45.5368H185.23H176.103L176.099 37.7815C176.096 31.7975 176.021 29.6744 175.77 28.4862C175.591 27.6392 175.145 26.3365 174.779 25.5911C174.355 24.7265 173.65 23.8071 172.832 23.05C172.011 22.2903 171.082 21.6844 170.249 21.365C169.397 21.038 168.114 20.7993 166.527 20.6722C165.195 20.5655 163.313 20.4663 162.345 20.4515C161.376 20.4368 159.024 20.4319 157.117 20.4403L153.65 20.4559L153.642 27.9912C153.636 33.3398 153.547 36.0124 153.335 37.2016C153.171 38.123 152.839 39.3231 152.597 39.8685C152.356 40.4141 151.776 41.2831 151.309 41.7997C150.842 42.3163 150.1 42.9664 149.659 43.2441C149.219 43.5219 148.292 43.914 147.599 44.1155C146.652 44.3905 145.701 44.4625 143.775 44.4042C141.507 44.3357 141.069 44.2563 139.965 43.7149C139.28 43.3783 138.315 42.6993 137.821 42.2058C137.328 41.7126 136.628 40.701 136.266 39.9578C135.905 39.2146 135.44 38.0125 135.235 37.2865C134.924 36.1882 134.846 34.6451 134.773 28.1012L134.684 20.2359H122.374H110.063L110.075 27.4412C110.083 31.902 109.99 35.275 109.831 36.2965C109.69 37.204 109.388 38.4415 109.161 39.0465C108.933 39.6516 108.462 40.5743 108.113 41.097C107.765 41.62 106.979 42.4237 106.367 42.8833C105.689 43.3921 104.698 43.8695 103.832 44.1039C102.751 44.3962 101.862 44.4644 100.128 44.3881C98.486 44.3159 97.4955 44.1514 96.5918 43.8005C95.9015 43.5323 94.8398 42.8663 94.2323 42.3205C93.553 41.71 92.8664 40.7974 92.4488 39.9495C92.0752 39.1913 91.6299 37.787 91.4591 36.8287C91.2361 35.5781 91.1463 33.1149 91.1408 28.1012L91.1331 21.1159H78.5858H66.0385L66.0347 28.4312C66.0316 34.0271 65.9544 36.1083 65.7059 37.2865C65.5271 38.1335 65.0822 39.4346 64.717 40.1778C64.3519 40.9212 63.6448 41.8978 63.146 42.3482C62.6472 42.7988 61.6824 43.4249 61.0019 43.74C59.9691 44.218 59.3697 44.3269 57.3711 44.4C55.5756 44.4655 54.6286 44.3929 53.581 44.1094C52.813 43.9017 51.7486 43.4201 51.2157 43.0392C50.6828 42.6582 49.9997 42.0496 49.6979 41.6866C49.3959 41.3236 48.931 40.5978 48.6649 40.0738C48.3987 39.5497 47.9715 38.3617 47.7154 37.4337C47.302 35.9356 47.245 35.0924 47.2076 29.9162C47.1829 26.4947 47.0625 23.6564 46.9166 23.0458C46.7795 22.4738 46.508 21.6074 46.3132 21.1208L45.959 20.2359L42.5158 20.2698C40.6222 20.2883 37.9831 20.3752 36.6514 20.4627ZM45.4607 51.972C45.5516 52.2444 45.687 54.4966 45.7614 56.9772L45.8967 61.4873L97.3361 61.5428L148.775 61.5982L149.016 60.4388C149.149 59.801 149.235 57.8453 149.209 56.0932C149.182 54.3408 149.237 52.5854 149.331 52.192L149.502 51.477H169.186H188.87L188.87 98.5036L188.869 145.53L184.192 145.542C180.898 145.55 178.766 145.667 176.983 145.938C175.591 146.15 173.415 146.576 172.148 146.885C170.881 147.193 169.003 147.743 167.974 148.106C166.945 148.469 165.157 149.185 164 149.698C162.842 150.211 160.857 151.255 159.589 152.019C158.32 152.782 156.343 154.11 155.197 154.969C154.05 155.828 151.815 157.818 150.231 159.391C148.647 160.964 146.701 163.092 145.906 164.121C145.111 165.149 143.838 166.926 143.076 168.069C142.314 169.213 141.169 171.193 140.532 172.47C139.895 173.747 139.065 175.572 138.687 176.526C138.31 177.481 137.753 179.114 137.449 180.156C137.145 181.199 136.747 182.744 136.565 183.591C136.383 184.439 136.091 186.266 135.916 187.653C135.742 189.04 135.599 191.643 135.599 193.437C135.599 195.231 135.704 197.661 135.831 198.836C135.959 200.011 136.308 202.194 136.607 203.686C136.906 205.179 137.546 207.605 138.031 209.076C138.515 210.548 139.699 213.346 140.662 215.294C141.625 217.241 143.169 219.914 144.093 221.234C145.017 222.553 146.469 224.453 147.321 225.456C148.172 226.459 149.771 228.13 150.874 229.168C151.977 230.206 153.845 231.783 155.025 232.672C156.205 233.561 158.121 234.848 159.284 235.531C160.446 236.215 162.502 237.296 163.852 237.934C165.202 238.572 167.347 239.444 168.618 239.873C169.889 240.302 171.748 240.86 172.748 241.113C173.748 241.367 175.878 241.781 177.481 242.034C179.637 242.375 181.526 242.502 184.743 242.524L189.09 242.553L189.09 250.749V258.944H97.4068H5.72333V155.211V51.477H25.5091H45.2951L45.4607 51.972ZM23.7739 107.231V130.643L47.1074 130.661L70.441 130.679V107.249V83.8181H47.1074H23.7739V107.231ZM64.5084 106.788C64.5048 116.336 64.4725 124.178 64.4359 124.214C64.3996 124.251 56.9941 124.325 47.9792 124.38C38.9642 124.435 31.1673 124.426 30.6529 124.36L29.7173 124.24V106.778V89.3156L47.1158 89.3719L64.5145 89.4283L64.5084 106.788ZM84.9726 97.6235C84.9741 98.8032 85.0353 99.9915 85.1082 100.264L85.2409 100.759H128.773H172.305L172.443 100.071C172.519 99.6929 172.581 98.8144 172.581 98.1186C172.581 97.4229 172.519 96.5442 172.443 96.166L172.305 95.4785H128.637H84.9695L84.9726 97.6235ZM84.9695 115.83V118.579H122.288H159.607L159.545 115.884L159.483 113.189L122.226 113.135L84.9695 113.081V115.83ZM192.282 152.445C193.614 152.715 195.793 153.284 197.125 153.71C198.457 154.135 200.834 155.099 202.408 155.851C203.982 156.604 206.26 157.863 207.471 158.649C208.682 159.436 210.564 160.824 211.653 161.735C212.743 162.645 214.331 164.127 215.183 165.026C216.035 165.926 217.354 167.48 218.115 168.479C218.875 169.477 220.003 171.108 220.622 172.103C221.24 173.097 222.264 175 222.898 176.331C223.533 177.662 224.314 179.543 224.634 180.511C224.955 181.479 225.453 183.212 225.74 184.361C226.027 185.511 226.391 187.244 226.548 188.212C226.718 189.256 226.832 191.806 226.828 194.482C226.824 198.187 226.736 199.451 226.338 201.561C226.072 202.974 225.501 205.292 225.071 206.712C224.64 208.132 223.816 210.351 223.239 211.643C222.662 212.935 221.661 214.874 221.014 215.952C220.368 217.03 219.086 218.899 218.167 220.105C217.248 221.311 215.555 223.244 214.405 224.401C213.255 225.558 211.472 227.158 210.443 227.956C209.414 228.754 207.842 229.877 206.951 230.452C206.059 231.026 204.029 232.117 202.438 232.874C200.847 233.632 198.605 234.551 197.455 234.917C196.305 235.283 194.869 235.699 194.263 235.842C193.658 235.985 192.42 236.245 191.512 236.421C190.604 236.596 188.672 236.832 187.219 236.944C185.522 237.076 183.44 237.069 181.396 236.926C179.647 236.803 177.047 236.457 175.62 236.155C174.193 235.854 171.86 235.208 170.436 234.718C169.013 234.229 166.857 233.349 165.647 232.762C164.436 232.175 162.504 231.099 161.354 230.371C160.204 229.643 158.576 228.497 157.736 227.824C156.897 227.151 155.658 226.068 154.985 225.417C154.311 224.767 153.208 223.653 152.534 222.943C151.86 222.234 150.711 220.861 149.981 219.893C149.251 218.925 148.288 217.556 147.842 216.851C147.395 216.146 146.54 214.602 145.942 213.418C145.344 212.235 144.504 210.35 144.076 209.228C143.648 208.107 143.055 206.232 142.758 205.062C142.461 203.891 142.053 201.947 141.851 200.743C141.604 199.268 141.483 197.258 141.482 194.592C141.48 191.98 141.603 189.845 141.843 188.322C142.043 187.051 142.502 184.887 142.864 183.512C143.225 182.138 143.881 180.108 144.322 179.002C144.763 177.896 145.518 176.204 146 175.241C146.482 174.278 147.519 172.5 148.305 171.29C149.09 170.08 150.306 168.393 151.006 167.541C151.706 166.688 152.91 165.343 153.68 164.55C154.45 163.758 155.922 162.409 156.951 161.553C157.981 160.696 159.835 159.334 161.072 158.526C162.31 157.717 164.489 156.505 165.915 155.832C167.341 155.159 169.513 154.279 170.742 153.876C171.97 153.473 174.199 152.893 175.695 152.587C177.19 152.281 178.761 151.99 179.184 151.939C179.608 151.889 182.184 151.872 184.908 151.901C189.011 151.946 190.276 152.039 192.282 152.445ZM23.8421 178.806L23.8839 202.292L47.1625 202.355L70.441 202.419V178.87V155.32H47.1207H23.8L23.8421 178.806ZM179.735 158.109C179.372 158.155 178.084 158.397 176.873 158.648C175.662 158.898 173.879 159.352 172.911 159.655C171.942 159.958 170.015 160.743 168.627 161.4C167.24 162.057 165.606 162.909 164.995 163.293C164.385 163.678 163.112 164.575 162.166 165.287C161.22 165.999 159.805 167.182 159.02 167.915C158.235 168.649 156.97 170.001 156.208 170.92C155.446 171.839 154.323 173.336 153.713 174.246C153.103 175.156 152.089 176.924 151.461 178.176C150.833 179.427 149.977 181.473 149.558 182.722C149.14 183.971 148.599 185.945 148.356 187.107C148.113 188.27 147.82 190.463 147.704 191.98C147.568 193.762 147.57 195.647 147.71 197.305C147.829 198.717 148.122 200.79 148.361 201.911C148.599 203.033 149.091 204.836 149.454 205.918C149.817 207 150.604 208.904 151.203 210.149C151.802 211.394 152.89 213.303 153.62 214.393C154.351 215.482 155.749 217.289 156.728 218.409C157.707 219.53 159.421 221.206 160.536 222.134C161.652 223.063 163.369 224.341 164.352 224.975C165.335 225.61 166.821 226.471 167.654 226.89C168.487 227.309 169.781 227.91 170.531 228.224C171.279 228.539 172.731 229.04 173.756 229.337C174.781 229.634 176.384 230.034 177.319 230.227C178.253 230.42 180.201 230.668 181.647 230.777C183.292 230.902 185.278 230.896 186.952 230.76C188.423 230.641 190.571 230.34 191.725 230.09C192.879 229.841 194.681 229.35 195.729 228.999C196.777 228.648 198.464 227.98 199.478 227.514C200.492 227.048 202.133 226.164 203.124 225.55C204.115 224.935 205.697 223.845 206.639 223.126C207.581 222.407 209.244 220.891 210.334 219.756C211.425 218.621 212.867 216.95 213.539 216.043C214.211 215.135 215.221 213.6 215.784 212.63C216.346 211.661 217.147 210.127 217.563 209.22C217.98 208.314 218.627 206.632 219.001 205.482C219.375 204.333 219.824 202.699 219.998 201.852C220.172 201.005 220.435 199.273 220.582 198.002C220.74 196.631 220.798 194.53 220.723 192.832C220.654 191.259 220.385 188.886 220.126 187.558C219.866 186.231 219.305 184.102 218.878 182.828C218.451 181.554 217.608 179.521 217.003 178.311C216.399 177.101 215.446 175.422 214.887 174.58C214.328 173.738 213.308 172.352 212.622 171.5C211.935 170.648 210.444 169.06 209.307 167.971C208.171 166.882 206.451 165.434 205.485 164.753C204.519 164.072 202.936 163.058 201.968 162.501C200.999 161.943 199.238 161.092 198.055 160.609C196.871 160.126 194.989 159.483 193.872 159.179C192.756 158.875 190.851 158.477 189.64 158.295C188.278 158.09 186.098 157.975 183.917 157.995C181.98 158.012 180.098 158.064 179.735 158.109ZM53.8764 161.252L64.7177 161.261V178.641V196.022H47.2175H29.7173V178.647V161.272L33.0743 161.211C34.9205 161.178 37.9171 161.171 39.7332 161.197C41.5492 161.222 47.9138 161.247 53.8764 161.252ZM84.9695 169.951V172.701H108.743H132.517L132.514 170.446C132.513 169.206 132.451 167.968 132.379 167.696L132.246 167.201H108.608H84.9695V169.951ZM205.458 178.937L207.101 180.333L191.543 195.88L175.986 211.428L175.364 210.71C175.022 210.315 173.54 208.755 172.071 207.242C170.602 205.73 167.962 203.022 166.203 201.226L163.005 197.959L164.216 196.87C164.882 196.272 165.585 195.692 165.779 195.582C166.062 195.421 167.045 196.37 170.709 200.34L175.286 205.3L182.353 198.296C186.24 194.444 192.541 188.199 196.354 184.418C200.168 180.637 203.407 177.543 203.551 177.542C203.696 177.542 204.554 178.169 205.458 178.937ZM84.9695 187.663V190.305L100.544 190.248L116.118 190.192L116.182 188.102C116.218 186.952 116.191 185.789 116.123 185.517L115.999 185.022H100.484H84.9695V187.663Z" fill="#EFEFEF"/>
</svg>
